<?xml version="1.0" standalone="no"?>
<!DOCTYPE svg PUBLIC "-//W3C//DTD SVG 20010904//EN"
 "http://www.w3.org/TR/2001/REC-SVG-20010904/DTD/svg10.dtd">
<svg version="1.0" xmlns="http://www.w3.org/2000/svg"
 width="700.000000pt" height="700.000000pt" viewBox="0 0 700.000000 700.000000"
 preserveAspectRatio="xMidYMid meet">
<metadata>
Created by potrace 1.14, written by Peter Selinger 2001-2017
</metadata>
<g transform="translate(0.000000,700.000000) scale(0.100000,-0.100000)"
fill="#000000" stroke="none">
<path d="M3280 6994 c-19 -2 -84 -9 -145 -14 -410 -40 -846 -169 -1225 -362
-343 -176 -628 -387 -908 -672 -561 -572 -883 -1252 -984 -2081 -7 -56 -12
-217 -12 -365 0 -268 7 -362 45 -588 96 -575 348 -1138 716 -1597 115 -144
339 -373 483 -494 537 -451 1157 -715 1885 -803 135 -16 590 -16 735 1 512 58
1002 222 1426 478 635 383 1136 957 1422 1628 255 599 339 1259 242 1898 -93
610 -340 1176 -726 1662 -116 147 -431 459 -574 569 -523 404 -1101 642 -1750
722 -117 15 -553 27 -630 18z m426 -1321 c163 -132 381 -348 468 -463 252
-334 263 -615 35 -940 -71 -102 -325 -353 -488 -483 -74 -59 -138 -107 -143
-107 -4 0 -70 53 -145 119 -150 129 -363 343 -431 432 -172 227 -233 440 -184
639 52 207 207 426 467 659 132 119 281 241 293 241 5 0 62 -44 128 -97z
m-1236 -1503 c193 -64 388 -213 603 -459 139 -158 249 -300 244 -314 -11 -29
-211 -253 -336 -377 -158 -157 -280 -251 -406 -314 -112 -55 -196 -76 -309
-76 -220 0 -426 111 -687 370 -123 122 -333 362 -346 396 -15 39 404 492 567
613 104 77 262 157 350 176 89 20 235 13 320 -15z m2585 10 c253 -65 514 -288
863 -737 l33 -42 -119 -138 c-150 -173 -351 -371 -460 -451 -97 -72 -241 -145
-327 -167 -77 -19 -225 -19 -300 0 -242 63 -492 265 -807 649 l-89 108 38 47
c287 358 540 592 740 683 151 68 289 84 428 48z m-1390 -1099 c387 -307 630
-602 689 -837 20 -76 20 -232 2 -299 -66 -244 -268 -491 -648 -793 -60 -48
-115 -90 -122 -94 -16 -9 -231 176 -391 336 -159 160 -251 279 -315 411 -158
324 -81 603 266 965 145 150 420 384 439 372 6 -3 42 -31 80 -61z"/>
</g>
</svg>
